<?xml version="1.0" encoding="UTF-8" standalone="no"?>
<!-- Created with Inkscape (http://www.inkscape.org/) -->

<svg
   xmlns:dc="http://purl.org/dc/elements/1.1/"
   xmlns:cc="http://creativecommons.org/ns#"
   xmlns:rdf="http://www.w3.org/1999/02/22-rdf-syntax-ns#"
   xmlns:svg="http://www.w3.org/2000/svg"
   xmlns="http://www.w3.org/2000/svg"
   xmlns:xlink="http://www.w3.org/1999/xlink"
   xmlns:sodipodi="http://sodipodi.sourceforge.net/DTD/sodipodi-0.dtd"
   xmlns:inkscape="http://www.inkscape.org/namespaces/inkscape"
   width="259.68674"
   height="207.10818"
   id="svg3199"
   version="1.1"
   inkscape:version="0.48.4 r9939"
   sodipodi:docname="New document 4">
  <defs
     id="defs3201">
    <linearGradient
       inkscape:collect="always"
       xlink:href="#linearGradient8475-6"
       id="linearGradient3154"
       gradientUnits="userSpaceOnUse"
       gradientTransform="matrix(1.0527625,0,0,1.0383448,-335.7996,-1833.4937)"
       x1="630.12769"
       y1="2304.043"
       x2="304.15808"
       y2="1881.1858" />
    <linearGradient
       id="linearGradient8475-6">
      <stop
         style="stop-color:#2c5aa0;stop-opacity:1;"
         offset="0"
         id="stop8477-3" />
      <stop
         style="stop-color:#2c5aa0;stop-opacity:0;"
         offset="1"
         id="stop8479-0" />
    </linearGradient>
    <filter
       id="filter8603"
       inkscape:menu-tooltip="Pressed metal with a rolled edge"
       inkscape:menu="Bevels"
       inkscape:label="Pressed steel"
       color-interpolation-filters="sRGB">
      <feGaussianBlur
         id="feGaussianBlur8605"
         result="result1"
         stdDeviation="3" />
      <feBlend
         id="feBlend8607"
         in2="result1"
         result="result5"
         mode="multiply"
         in="result1" />
      <feGaussianBlur
         id="feGaussianBlur8609"
         in="result5"
         result="result6"
         stdDeviation="1" />
      <feComposite
         id="feComposite8611"
         in2="result5"
         result="result8"
         in="result6"
         operator="xor" />
      <feComposite
         id="feComposite8613"
         in2="result8"
         in="result6"
         result="fbSourceGraphic"
         operator="xor" />
      <feSpecularLighting
         id="feSpecularLighting8615"
         in="fbSourceGraphic"
         result="result1"
         lighting-color="#ffffff"
         surfaceScale="2"
         specularConstant="2.20000005"
         specularExponent="55">
        <fePointLight
           id="fePointLight8617"
           x="-5000"
           y="-10000"
           z="20000" />
      </feSpecularLighting>
      <feComposite
         id="feComposite8619"
         in2="fbSourceGraphic"
         in="result1"
         result="result2"
         operator="in" />
      <feComposite
         id="feComposite8621"
         in2="result2"
         in="fbSourceGraphic"
         result="result4"
         operator="arithmetic"
         k2="2"
         k3="1"
         k1="0"
         k4="0" />
      <feComposite
         id="feComposite8623"
         in2="result4"
         operator="in"
         result="result91" />
      <feBlend
         id="feBlend8625"
         in2="result91"
         mode="darken" />
    </filter>
  </defs>
  <sodipodi:namedview
     id="base"
     pagecolor="#ffffff"
     bordercolor="#666666"
     borderopacity="1.0"
     inkscape:pageopacity="0.0"
     inkscape:pageshadow="2"
     inkscape:zoom="1.979899"
     inkscape:cx="186.7288"
     inkscape:cy="115.39815"
     inkscape:document-units="px"
     inkscape:current-layer="layer1"
     showgrid="false"
     fit-margin-top="2"
     fit-margin-left="2"
     fit-margin-right="2"
     fit-margin-bottom="2"
     inkscape:window-width="1064"
     inkscape:window-height="895"
     inkscape:window-x="0"
     inkscape:window-y="0"
     inkscape:window-maximized="0" />
  <metadata
     id="metadata3204">
    <rdf:RDF>
      <cc:Work
         rdf:about="">
        <dc:format>image/svg+xml</dc:format>
        <dc:type
           rdf:resource="http://purl.org/dc/dcmitype/StillImage" />
        <dc:title></dc:title>
      </cc:Work>
    </rdf:RDF>
  </metadata>
  <g
     inkscape:label="Layer 1"
     inkscape:groupmode="layer"
     id="layer1"
     transform="translate(-0.55814523,-481.05832)">
    <g
       transform="matrix(0.34391081,0,0,0.34391081,14.347642,379.67748)"
       id="g3136">
      <g
         transform="translate(-12.47415,0)"
         id="g3845">
        <path
           style="color:#000000;fill:url(#linearGradient3154);fill-opacity:1;stroke:none;stroke-width:25;marker:none;visibility:visible;display:inline;overflow:visible;enable-background:accumulate"
           inkscape:connector-curvature="0"
           id="Selection-5-4-2"
           d="m 368.4155,324.15816 c 61.4269,-33.0192 138.4871,-32.2013 196.5662,8.0276 62.38117,52.47331 72.7911,103.81033 72.7911,176.7588 45.31141,33.18688 68.85111,80.95962 68.491,127.8661 -0.8601,71.3396 -60.2289,115.022 -128.9967,115.1128 l -439.2026,0 c -86.9807,-0.1213 -145.3362,-60.0707 -144.3532,-145.4056 0.5836,-49.65 26.69,-94.544 70.6409,-119.1116 25.9531,-14.5102 41.4939,-12.1777 50.6771,-19.7812 12.48184,-18.75185 20.25571,-38.99492 35.5971,-54.8603 29.6999,-30.2929 74.9103,-41.592 116.4349,-35.1397 l 39.9273,10.7843 c 8.8456,-26.2337 37.2247,-51.2253 61.4269,-64.2512 z"
           sodipodi:nodetypes="ccccccccccccc" />
        <path
           sodipodi:nodetypes="cccccccccccccccsccccccccccccccccccccccccccccccccccccccccccccccccccccccsccccccccccccccccccccccccccccccccccccccc"
           inkscape:connector-curvature="0"
           style="fill:#cccccc;fill-opacity:0.65979381;stroke:none;display:inline;filter:url(#filter8603)"
           d="m 285.7591,508.33516 c 2.0099,-0.4283 6.2357,-0.8072 7.1254,-2.8996 1.1532,-2.6854 -2.9078,-9.0695 -4.4235,-11.2771 -5.1073,-7.4302 -10.2805,-14.4651 -10.8653,-23.8888 -0.8897,-14.5391 11.2442,-27.6368 22.9908,-34.408 12.2987,-7.0925 26.2283,-10.6758 39.5401,-15.297 11.7631,-4.0858 29.3172,-11.5325 40.3637,-17.2329 16.6563,-8.5917 39.2353,-28.4688 55.1913,-32.9417 6.6477,-1.87 20.9397,-4.4401 23.9464,4.3411 1.6227,4.7201 -3.3856,10.5934 -3.9951,14.8111 -0.3873,2.7348 1.0132,3.8469 1.425,7.4137 l 0,12.3562 c 0.025,11.6232 -3.748,18.7157 -8.8141,28.8313 -11.03,21.9941 -36.1215,47.5963 -58.6922,57.6625 4.8436,5.9887 3.0808,5.1896 4.7036,11.5325 4.819,18.8886 -5.9722,31.6897 -22.0024,40.1002 -6.8453,3.5915 -12.8587,4.3905 -19.77,9.3248 l 24.7125,-2.4712 c 14.9676,-2.9244 17.793,-5.0661 34.5975,-5.9805 l 6.59,0 21.4175,1.2769 10.7088,2.1252 c 18.7403,2.8173 32.2498,5.0743 48.6013,15.8243 7.3643,4.8354 14.6544,12.0597 20.2148,18.8803 7.7845,9.5555 12.834,21.0221 17.933,32.1263 9.572,20.8491 17.4471,39.8613 31.4343,58.4862 6.1617,8.1964 14.4404,16.4092 23.5016,21.2693 l 14.0039,5.3544 c 9.3,4.4153 17.6694,12.348 19.7699,22.8014 -7.4055,0.3377 -12.7764,3.0231 -20.5938,0.8814 -7.529,-2.0594 -12.142,-7.9492 -17.3069,-13.2377 l -15.7007,-14.8275 c -15.7007,-15.7831 -26.1459,-29.8527 -36.7558,-49.425 -13.9708,-25.7752 -21.2198,-52.4729 -48.8566,-67.6628 -7.4796,-4.1023 -12.7928,-4.506 -20.5938,-6.4747 0.4284,9.3001 1.87,18.732 0,28.0075 -1.4415,7.1254 -6.5323,20.8409 -5.5025,27.1837 0.7907,4.8602 6.5982,16.6151 9.5636,20.5856 2.842,3.8139 5.7087,5.1072 7.4303,9.8932 1.7793,5.2226 0.107,10.3463 0,15.6512 l 3.3361,37.8926 -40.3637,0 c 0.4119,-5.1073 2.9326,-7.801 8.2375,-8.1222 3.2209,-0.1977 6.7383,1.3921 8.2952,-2.6772 1.1285,-2.949 -0.9062,-11.5984 -1.87,-14.7369 -2.1829,-7.0925 -11.7384,-23.4686 -16.6974,-28.5676 -2.7678,-2.842 -6.7218,-5.2226 -10.3216,-6.8537 -0.453,1.4993 -1.1862,3.3857 -1.112,4.9425 0.1483,3.1468 6.7465,13.7896 8.913,16.475 3.2702,4.0611 7.4631,7.3314 6.7218,13.1801 -0.4284,3.402 -2.7431,6.9771 -4.473,9.8849 -2.1829,3.6657 -7.1913,13.6825 -10.4287,15.6595 -1.4003,0.8485 -2.9902,0.7826 -4.5636,0.8156 l -19.7699,0 c 2.6854,-5.5851 9.4236,-16.0961 8.5669,-22.2413 -1.3262,-9.399 -10.7746,-14.7039 -16.6562,-21.4175 -3.5586,-4.0693 -6.9771,-10.2392 -9.9921,-14.8275 -2.2323,-3.3939 -4.926,-5.7992 -6.1039,-9.885 -0.8238,-2.8419 -0.5273,-11.4007 -0.5273,-14.8275 l -18.1225,4.8189 -24.7125,6.796 -9.0612,1.7546 -10.7088,2.7348 -20.5937,3.3115 c -2.8667,0.4201 -7.2985,0.2801 -9.6626,1.944 -3.7234,2.636 -3.3444,9.1601 -7.1337,14.0614 l -6.1287,6.59 -12.4963,13.8555 -17.1587,15.3382 c -10.4946,9.7862 -6.8701,11.9774 -16.6151,11.9939 l -46.13,0 c -3.5092,0 -14.8028,1.8204 -13.4189,-4.1352 0.4119,-1.7958 2.0841,-4.2012 3.1303,-5.7498 3.6245,-5.3709 6.7053,-8.3776 13.5836,-7.2326 6.6724,1.1121 8.2705,6.8454 15.643,0.9473 7.3149,-5.8651 8.1799,-12.0844 12.4387,-19.251 l 10.338,-14.0038 10.1816,-17.2987 c -4.5965,-1.9276 -10.091,-3.0396 -14.0038,-6.0875 -4.9754,-3.8799 -5.6756,-6.5818 -8.9953,-11.2113 -3.4433,-4.786 -6.4912,-8.4022 -8.8389,-14.0037 -1.8452,-4.3906 -4.3494,-13.4024 -4.407,-18.1225 l -0.8238,-15.6513 0.7908,-9.0612 0,-10.7088 c 0.1071,-6.3676 1.3016,-6.7877 2.5042,-12.3562 -5.8568,3.1549 -15.6265,13.5589 -20.6844,7.8421 -1.5651,-1.7793 -1.4909,-4.6378 -2.4382,-7.0184 -0.7497,-1.9029 -2.043,-3.5915 -2.0512,-5.7333 -0.01,-3.1467 2.0676,-2.9325 2.1088,-8.2704 l 7.4138,2.4712 2.4712,-8.2375 c -2.5124,0.025 -5.0331,-0.082 -7.3396,1.0791 l -4.3,2.9161 c -2.3559,0.8485 -4.1434,-1.4333 -5.7333,-2.8337 -7.422,-6.5735 -4.6871,-4.4565 -7.9986,-11.8373 -1.5074,-3.3527 -5.1402,-5.931 -4.8354,-9.9097 0.2554,-3.3197 2.949,-4.8272 5.4944,-6.3758 5.3791,-3.2539 7.4879,-5.6263 14.0038,-5.9887 0.041,-4.3412 0.2059,-7.4797 4.1517,-10.2227 2.7842,-1.9276 5.0166,-0.9062 8.8059,-5.445 3.8057,-4.5636 1.7546,-7.7433 10.1074,-11.5984 4.3329,-1.9935 13.5507,-2.8832 18.1225,-1.8288 l 6.59,2.3395 c 6.2193,1.7711 3.3526,0.5354 9.885,3.3609 9.2632,1.8018 14.7195,10.3476 19.943,15.9066 l 5.1237,4.4565 c 1.7052,1.9852 2.0511,4.1517 3.3856,6.3264 3.3856,5.5356 5.4203,6.9772 6.1452,14.0038 7.0431,-2.3312 7.1831,-5.5439 18.9463,-8.0646 z"
           id="Selection-7-0" />
      </g>
      <g
         style="fill:#2c5aa0;fill-opacity:1"
         id="g3815">
        <path
           inkscape:connector-curvature="0"
           id="path3782"
           style="font-size:128px;font-style:normal;font-variant:normal;font-weight:bold;font-stretch:normal;text-align:start;line-height:125%;letter-spacing:0px;word-spacing:0px;writing-mode:lr-tb;text-anchor:start;fill:#2c5aa0;fill-opacity:1;stroke:none;font-family:Helvetica Neue LT Com;-inkscape-font-specification:Helvetica Neue LT Com Bold"
           d="m 12.823319,845.01738 c -1.194717,-7.59462 -5.6747128,-11.39195 -13.4399998,-11.392 -2.901369,5e-5 -5.3333665,0.68272 -7.296,2.048 -1.9626959,1.28005 -3.5840272,2.98672 -4.8640002,5.12 -1.194692,2.04805 -2.048024,4.35204 -2.56,6.912 -0.512023,2.56004 -0.768023,5.0347 -0.768,7.424 -2.3e-5,2.38936 0.255977,4.82136 0.768,7.296 0.511976,2.47469 1.322642,4.73602 2.432,6.784 1.194639,1.96268 2.773304,3.58402 4.7360002,4.864 1.9626337,1.28001 4.3519647,1.92001 7.168,1.92 4.2666243,10e-6 7.594621,-1.19465 9.984,-3.584 2.3892828,-2.47465 3.8826148,-5.75998 4.4799998,-9.856 l 17.536,0 c -1.194736,8.78935 -4.608066,15.53068 -10.24,20.224 -5.632054,4.608 -12.8427138,6.912 -21.6319998,6.912 -5.0346999,0 -9.6000282,-0.81067 -13.6960002,-2.432 -4.09602,-1.70666 -7.594684,-4.05333 -10.496,-7.04 -2.901345,-3.07199 -5.162676,-6.65599 -6.784,-10.752 -1.621339,-4.18131 -2.432005,-8.74664 -2.432,-13.696 -5e-6,-5.11996 0.725328,-9.85596 2.176,-14.208 1.535991,-4.43728 3.754656,-8.23461 6.656,-11.392 2.901317,-3.24261 6.442647,-5.75994 10.624,-7.552 4.181305,-1.79193 8.9599669,-2.68793 14.3360002,-2.688 3.9252908,7e-5 7.679954,0.51207 11.2639998,1.536 3.66928,1.02407 6.911943,2.60273 9.728,4.736 2.815938,2.04806 5.119935,4.65072 6.912,7.808 1.877265,3.15738 2.94393,6.82671 3.2,11.008 l -17.792,0" />
        <path
           inkscape:connector-curvature="0"
           id="path3784"
           style="font-size:128px;font-style:normal;font-variant:normal;font-weight:bold;font-stretch:normal;text-align:start;line-height:125%;letter-spacing:0px;word-spacing:0px;writing-mode:lr-tb;text-anchor:start;fill:#2c5aa0;fill-opacity:1;stroke:none;font-family:Helvetica Neue LT Com;-inkscape-font-specification:Helvetica Neue LT Com Bold"
           d="m 41.779319,796.50538 18.176,0 0,91.392 -18.176,0 0,-91.392" />
        <path
           inkscape:connector-curvature="0"
           id="path3786"
           style="font-size:128px;font-style:normal;font-variant:normal;font-weight:bold;font-stretch:normal;text-align:start;line-height:125%;letter-spacing:0px;word-spacing:0px;writing-mode:lr-tb;text-anchor:start;fill:#2c5aa0;fill-opacity:1;stroke:none;font-family:Helvetica Neue LT Com;-inkscape-font-specification:Helvetica Neue LT Com Bold"
           d="m 90.395319,854.87338 c -2.3e-5,2.64536 0.255977,5.24803 0.768,7.808 0.511976,2.47469 1.365308,4.73602 2.56,6.784 1.27997,1.96268 2.94397,3.54135 4.992,4.736 2.047971,1.19468 4.607961,1.79201 7.680001,1.792 3.07196,10e-6 5.63196,-0.59732 7.68,-1.792 2.13328,-1.19465 3.79728,-2.77332 4.992,-4.736 1.27995,-2.04798 2.17595,-4.30931 2.688,-6.784 0.51195,-2.55997 0.76794,-5.16264 0.768,-7.808 -6e-5,-2.6453 -0.25605,-5.24796 -0.768,-7.808 -0.51205,-2.55996 -1.40805,-4.82129 -2.688,-6.784 -1.19472,-1.96262 -2.85872,-3.54128 -4.992,-4.736 -2.04804,-1.27995 -4.60804,-1.91995 -7.68,-1.92 -3.07204,5e-5 -5.63203,0.64005 -7.680001,1.92 -2.04803,1.19472 -3.71203,2.77338 -4.992,4.736 -1.194692,1.96271 -2.048024,4.22404 -2.56,6.784 -0.512023,2.56004 -0.768023,5.1627 -0.768,7.808 m -18.176,0 c -5e-6,-5.29063 0.810661,-10.06929 2.432,-14.336 1.621324,-4.35195 3.925322,-8.02128 6.912,-11.008 2.986649,-3.07194 6.570646,-5.4186 10.752,-7.04 4.1813,-1.7066 8.874631,-2.55993 14.080001,-2.56 5.20529,7e-5 9.89862,0.8534 14.08,2.56 4.26661,1.6214 7.89327,3.96806 10.88,7.04 2.9866,2.98672 5.2906,6.65605 6.912,11.008 1.62126,4.26671 2.43193,9.04537 2.432,14.336 -7e-5,5.29069 -0.81074,10.06936 -2.432,14.336 -1.6214,4.26668 -3.9254,7.93601 -6.912,11.008 -2.98673,2.98667 -6.61339,5.33334 -10.88,7.04 -4.18138,1.62133 -8.87471,2.432 -14.08,2.432 -5.20537,0 -9.898701,-0.81067 -14.080001,-2.432 -4.181354,-1.70666 -7.765351,-4.05333 -10.752,-7.04 -2.986678,-3.07199 -5.290676,-6.74132 -6.912,-11.008 -1.621339,-4.26664 -2.432005,-9.04531 -2.432,-14.336" />
        <path
           inkscape:connector-curvature="0"
           id="path3788"
           style="font-size:128px;font-style:normal;font-variant:normal;font-weight:bold;font-stretch:normal;text-align:start;line-height:125%;letter-spacing:0px;word-spacing:0px;writing-mode:lr-tb;text-anchor:start;fill:#2c5aa0;fill-opacity:1;stroke:none;font-family:Helvetica Neue LT Com;-inkscape-font-specification:Helvetica Neue LT Com Bold"
           d="m 214.59732,887.89738 -17.28,0 0,-9.216 -0.384,0 c -2.30405,3.75467 -5.29071,6.528 -8.96,8.32 -3.66937,1.792 -7.42403,2.688 -11.264,2.688 -4.86403,0 -8.87469,-0.64 -12.032,-1.92 -3.07202,-1.36533 -5.50401,-3.2 -7.296,-5.504 -1.79201,-2.38933 -3.07201,-5.24799 -3.84,-8.576 -0.68267,-3.41332 -1.02401,-7.16798 -1.024,-11.264 l 0,-40.704 18.176,0 0,37.376 c -3e-5,5.46136 0.85331,9.55735 2.56,12.288 1.79197,2.64535 4.8213,3.96801 9.088,3.968 4.94929,10e-6 8.53329,-1.45065 10.752,-4.352 2.21862,-2.98665 3.32795,-7.85064 3.328,-14.592 l 0,-34.688 18.176,0 0,66.176" />
        <path
           inkscape:connector-curvature="0"
           id="path3790"
           style="font-size:128px;font-style:normal;font-variant:normal;font-weight:bold;font-stretch:normal;text-align:start;line-height:125%;letter-spacing:0px;word-spacing:0px;writing-mode:lr-tb;text-anchor:start;fill:#2c5aa0;fill-opacity:1;stroke:none;font-family:Helvetica Neue LT Com;-inkscape-font-specification:Helvetica Neue LT Com Bold"
           d="m 275.49332,854.61738 c -5e-5,-2.6453 -0.25605,-5.24796 -0.768,-7.808 -0.51205,-2.55996 -1.40805,-4.77862 -2.688,-6.656 -1.19472,-1.96262 -2.81605,-3.54128 -4.864,-4.736 -1.96271,-1.19461 -4.39471,-1.79195 -7.296,-1.792 -2.9867,5e-5 -5.50403,0.59739 -7.552,1.792 -2.04803,1.19472 -3.71203,2.77338 -4.992,4.736 -1.19469,1.96271 -2.09069,4.22404 -2.688,6.784 -0.51202,2.47471 -0.76802,5.07737 -0.768,7.808 -2e-5,2.56003 0.29864,5.12003 0.896,7.68 0.59731,2.56002 1.53598,4.86402 2.816,6.912 1.36531,1.96268 3.0293,3.58401 4.992,4.864 2.04797,1.19468 4.47996,1.79201 7.296,1.792 2.98663,10e-6 5.46129,-0.59732 7.424,-1.792 2.04795,-1.19465 3.66928,-2.77332 4.864,-4.736 1.19461,-2.04798 2.04795,-4.35198 2.56,-6.912 0.51195,-2.55997 0.76795,-5.2053 0.768,-7.936 m 0.256,24.832 -0.256,0 c -2.13339,3.584 -4.94938,6.18667 -8.448,7.808 -3.49871,1.62133 -7.38137,2.432 -11.648,2.432 -5.0347,0 -9.42936,-0.98133 -13.184,-2.944 -3.66935,-1.96266 -6.74135,-4.56533 -9.216,-7.808 -2.38934,-3.32799 -4.22401,-7.12532 -5.504,-11.392 -1.19467,-4.26664 -1.792,-8.70397 -1.792,-13.312 0,-4.4373 0.59733,-8.70396 1.792,-12.8 1.27999,-4.18128 3.11466,-7.85061 5.504,-11.008 2.47465,-3.15727 5.54665,-5.6746 9.216,-7.552 3.66931,-1.9626 7.93597,-2.94393 12.8,-2.944 3.9253,7e-5 7.63729,0.8534 11.136,2.56 3.58395,1.6214 6.39995,4.05339 8.448,7.296 l 0.256,0 0,-33.28 18.176,0 0,91.392 -17.28,0 0,-8.448" />
      </g>
      <g
         style="stroke:#2c59a0;stroke-width:3;stroke-miterlimit:4;stroke-opacity:1;stroke-dasharray:none"
         id="g3822">
        <path
           inkscape:connector-curvature="0"
           id="path3792"
           style="font-size:128px;font-style:normal;font-variant:normal;font-weight:bold;font-stretch:normal;text-align:start;line-height:125%;letter-spacing:0px;word-spacing:0px;writing-mode:lr-tb;text-anchor:start;fill:none;stroke:#2c59a0;stroke-width:3;stroke-miterlimit:4;stroke-opacity:1;stroke-dasharray:none;font-family:Helvetica Neue LT Com;-inkscape-font-specification:Helvetica Neue LT Com Bold"
           d="m 343.37532,887.89738 -20.224,0 -22.656,-66.176 19.072,0 13.952,45.184 0.256,0 13.952,-45.184 18.048,0 -22.4,66.176" />
        <path
           inkscape:connector-curvature="0"
           id="path3794"
           style="font-size:128px;font-style:normal;font-variant:normal;font-weight:bold;font-stretch:normal;text-align:start;line-height:125%;letter-spacing:0px;word-spacing:0px;writing-mode:lr-tb;text-anchor:start;fill:none;stroke:#2c59a0;stroke-width:3;stroke-miterlimit:4;stroke-opacity:1;stroke-dasharray:none;font-family:Helvetica Neue LT Com;-inkscape-font-specification:Helvetica Neue LT Com Bold"
           d="m 417.81132,847.70538 c -0.85338,-4.60796 -2.38938,-8.10662 -4.608,-10.496 -2.13338,-2.38928 -5.41871,-3.58395 -9.856,-3.584 -2.90137,5e-5 -5.33336,0.51205 -7.296,1.536 -1.87736,0.93872 -3.41336,2.13338 -4.608,3.584 -1.10936,1.45071 -1.92002,2.98671 -2.432,4.608 -0.42669,1.62138 -0.68269,3.07204 -0.768,4.352 l 29.568,0 m -29.568,11.52 c 0.25598,5.80269 1.74931,10.06935 4.48,12.8 2.73064,2.64535 6.65597,3.96801 11.776,3.968 3.66929,10e-6 6.82662,-0.89599 9.472,-2.688 2.64528,-1.87732 4.26661,-3.83998 4.864,-5.888 l 16,0 c -2.56007,7.85068 -6.4854,13.52534 -11.776,17.024 -5.29072,3.49867 -11.69071,5.248 -19.2,5.248 -5.20537,0 -9.89869,-0.85333 -14.08,-2.56 -4.18135,-1.70666 -7.72268,-4.096 -10.624,-7.168 -2.90134,-3.07199 -5.16267,-6.74132 -6.784,-11.008 -1.536,-4.26664 -2.304,-8.95997 -2.304,-14.08 0,-4.9493 0.81066,-9.55729 2.432,-13.824 1.62133,-4.26662 3.92532,-7.93595 6.912,-11.008 2.98665,-3.15727 6.52798,-5.63194 10.624,-7.424 4.18131,-1.79193 8.7893,-2.68793 13.824,-2.688 5.63196,7e-5 10.53862,1.1094 14.72,3.328 4.18128,2.1334 7.59461,5.03473 10.24,8.704 2.7306,3.66939 4.69327,7.85071 5.888,12.544 1.1946,4.69337 1.62126,9.60003 1.28,14.72 l -47.744,0" />
        <path
           inkscape:connector-curvature="0"
           id="path3796"
           style="font-size:128px;font-style:normal;font-variant:normal;font-weight:bold;font-stretch:normal;text-align:start;line-height:125%;letter-spacing:0px;word-spacing:0px;writing-mode:lr-tb;text-anchor:start;fill:none;stroke:#2c59a0;stroke-width:3;stroke-miterlimit:4;stroke-opacity:1;stroke-dasharray:none;font-family:Helvetica Neue LT Com;-inkscape-font-specification:Helvetica Neue LT Com Bold"
           d="m 446.76732,821.72138 17.28,0 0,9.216 0.384,0 c 2.30397,-3.75461 5.29064,-6.52794 8.96,-8.32 3.6693,-1.79193 7.42396,-2.68793 11.264,-2.688 4.86395,7e-5 8.83195,0.68273 11.904,2.048 3.15727,1.28006 5.63194,3.11473 7.424,5.504 1.79193,2.30406 3.02927,5.16272 3.712,8.576 0.76793,3.32805 1.15193,7.04004 1.152,11.136 l 0,40.704 -18.176,0 0,-37.376 c -5e-5,-5.46129 -0.89605,-9.51462 -2.688,-12.16 -1.70671,-2.73061 -4.69338,-4.09595 -8.96,-4.096 -4.94937,5e-5 -8.53336,1.49339 -10.752,4.48 -2.21869,2.90138 -3.32803,7.72271 -3.328,14.464 l 0,34.688 -18.176,0 0,-66.176" />
        <path
           inkscape:connector-curvature="0"
           id="path3798"
           style="font-size:128px;font-style:normal;font-variant:normal;font-weight:bold;font-stretch:normal;text-align:start;line-height:125%;letter-spacing:0px;word-spacing:0px;writing-mode:lr-tb;text-anchor:start;fill:none;stroke:#2c59a0;stroke-width:3;stroke-miterlimit:4;stroke-opacity:1;stroke-dasharray:none;font-family:Helvetica Neue LT Com;-inkscape-font-specification:Helvetica Neue LT Com Bold"
           d="m 567.31132,847.70538 c -0.85338,-4.60796 -2.38938,-8.10662 -4.608,-10.496 -2.13338,-2.38928 -5.41871,-3.58395 -9.856,-3.584 -2.90137,5e-5 -5.33336,0.51205 -7.296,1.536 -1.87736,0.93872 -3.41336,2.13338 -4.608,3.584 -1.10936,1.45071 -1.92002,2.98671 -2.432,4.608 -0.42669,1.62138 -0.68269,3.07204 -0.768,4.352 l 29.568,0 m -29.568,11.52 c 0.25598,5.80269 1.74931,10.06935 4.48,12.8 2.73064,2.64535 6.65597,3.96801 11.776,3.968 3.66929,10e-6 6.82662,-0.89599 9.472,-2.688 2.64528,-1.87732 4.26661,-3.83998 4.864,-5.888 l 16,0 c -2.56007,7.85068 -6.4854,13.52534 -11.776,17.024 -5.29072,3.49867 -11.69071,5.248 -19.2,5.248 -5.20537,0 -9.89869,-0.85333 -14.08,-2.56 -4.18135,-1.70666 -7.72268,-4.096 -10.624,-7.168 -2.90134,-3.07199 -5.16267,-6.74132 -6.784,-11.008 -1.536,-4.26664 -2.304,-8.95997 -2.304,-14.08 0,-4.9493 0.81066,-9.55729 2.432,-13.824 1.62133,-4.26662 3.92532,-7.93595 6.912,-11.008 2.98665,-3.15727 6.52798,-5.63194 10.624,-7.424 4.18131,-1.79193 8.7893,-2.68793 13.824,-2.688 5.63196,7e-5 10.53862,1.1094 14.72,3.328 4.18128,2.1334 7.59461,5.03473 10.24,8.704 2.7306,3.66939 4.69327,7.85071 5.888,12.544 1.1946,4.69337 1.62126,9.60003 1.28,14.72 l -47.744,0" />
        <path
           inkscape:connector-curvature="0"
           id="path3800"
           style="font-size:128px;font-style:normal;font-variant:normal;font-weight:bold;font-stretch:normal;text-align:start;line-height:125%;letter-spacing:0px;word-spacing:0px;writing-mode:lr-tb;text-anchor:start;fill:none;stroke:#2c59a0;stroke-width:3;stroke-miterlimit:4;stroke-opacity:1;stroke-dasharray:none;font-family:Helvetica Neue LT Com;-inkscape-font-specification:Helvetica Neue LT Com Bold"
           d="m 619.30732,821.72138 13.312,0 0,12.16 -13.312,0 0,32.768 c -3e-5,3.07202 0.51197,5.12002 1.536,6.144 1.02397,1.02401 3.07197,1.53601 6.144,1.536 2.04796,10e-6 3.92529,-0.17065 5.632,-0.512 l 0,14.208 c -1.53604,0.256 -3.24271,0.42667 -5.12,0.512 -1.87737,0.0853 -3.71203,0.128 -5.504,0.128 -2.81603,0 -5.50403,-0.21333 -8.064,-0.64 -2.47469,-0.34133 -4.69335,-1.06667 -6.656,-2.176 -1.87735,-1.19466 -3.37068,-2.816 -4.48,-4.864 -1.10935,-2.04799 -1.66401,-4.73599 -1.664,-8.064 l 0,-39.04 -11.008,0 0,-12.16 11.008,0 0,-19.84 18.176,0 0,19.84" />
        <path
           inkscape:connector-curvature="0"
           id="path3802"
           style="font-size:128px;font-style:normal;font-variant:normal;font-weight:bold;font-stretch:normal;text-align:start;line-height:125%;letter-spacing:0px;word-spacing:0px;writing-mode:lr-tb;text-anchor:start;fill:none;stroke:#2c59a0;stroke-width:3;stroke-miterlimit:4;stroke-opacity:1;stroke-dasharray:none;font-family:Helvetica Neue LT Com;-inkscape-font-specification:Helvetica Neue LT Com Bold"
           d="m 657.39532,854.87338 c -2e-5,2.64536 0.25598,5.24803 0.768,7.808 0.51198,2.47469 1.36531,4.73602 2.56,6.784 1.27997,1.96268 2.94397,3.54135 4.992,4.736 2.04797,1.19468 4.60796,1.79201 7.68,1.792 3.07196,10e-6 5.63196,-0.59732 7.68,-1.792 2.13328,-1.19465 3.79728,-2.77332 4.992,-4.736 1.27995,-2.04798 2.17595,-4.30931 2.688,-6.784 0.51195,-2.55997 0.76794,-5.16264 0.768,-7.808 -6e-5,-2.6453 -0.25605,-5.24796 -0.768,-7.808 -0.51205,-2.55996 -1.40805,-4.82129 -2.688,-6.784 -1.19472,-1.96262 -2.85872,-3.54128 -4.992,-4.736 -2.04804,-1.27995 -4.60804,-1.91995 -7.68,-1.92 -3.07204,5e-5 -5.63203,0.64005 -7.68,1.92 -2.04803,1.19472 -3.71203,2.77338 -4.992,4.736 -1.19469,1.96271 -2.04802,4.22404 -2.56,6.784 -0.51202,2.56004 -0.76802,5.1627 -0.768,7.808 m -18.176,0 c 0,-5.29063 0.81066,-10.06929 2.432,-14.336 1.62132,-4.35195 3.92532,-8.02128 6.912,-11.008 2.98665,-3.07194 6.57065,-5.4186 10.752,-7.04 4.1813,-1.7066 8.87463,-2.55993 14.08,-2.56 5.20529,7e-5 9.89862,0.8534 14.08,2.56 4.26661,1.6214 7.89327,3.96806 10.88,7.04 2.9866,2.98672 5.2906,6.65605 6.912,11.008 1.62126,4.26671 2.43193,9.04537 2.432,14.336 -7e-5,5.29069 -0.81074,10.06936 -2.432,14.336 -1.6214,4.26668 -3.9254,7.93601 -6.912,11.008 -2.98673,2.98667 -6.61339,5.33334 -10.88,7.04 -4.18138,1.62133 -8.87471,2.432 -14.08,2.432 -5.20537,0 -9.8987,-0.81067 -14.08,-2.432 -4.18135,-1.70666 -7.76535,-4.05333 -10.752,-7.04 -2.98668,-3.07199 -5.29068,-6.74132 -6.912,-11.008 -1.62134,-4.26664 -2.432,-9.04531 -2.432,-14.336" />
      </g>
    </g>
  </g>
</svg>
